<?xml version="1.0" encoding="UTF-8" standalone="no"?>
<!DOCTYPE svg PUBLIC "-//W3C//DTD SVG 1.1//EN" "http://www.w3.org/Graphics/SVG/1.1/DTD/svg11.dtd">
<svg width="100%" height="100%" viewBox="0 0 178 53" version="1.1" xmlns="http://www.w3.org/2000/svg" xmlns:xlink="http://www.w3.org/1999/xlink" xml:space="preserve" xmlns:serif="http://www.serif.com/" style="fill-rule:evenodd;clip-rule:evenodd;stroke-linecap:round;stroke-linejoin:round;stroke-miterlimit:1.5;">
    <g transform="matrix(0.258338,0,0,0.100073,-32.7699,-23.6536)">
        <clipPath id="_clip1">
            <path d="M808.201,307.394L808.201,692.92C808.201,726.607 797.607,753.957 784.557,753.957L154.364,753.957C141.315,753.957 130.72,726.607 130.72,692.92L130.72,307.394C130.72,273.707 141.315,246.357 154.364,246.357L784.557,246.357C797.607,246.357 808.201,273.707 808.201,307.394Z"/>
        </clipPath>
        <g clip-path="url(#_clip1)">
            <g opacity="0.8">
                <path d="M808.201,307.394L808.201,692.92C808.201,726.607 797.607,753.957 784.557,753.957L154.364,753.957C141.315,753.957 130.72,726.607 130.72,692.92L130.72,307.394C130.72,273.707 141.315,246.357 154.364,246.357L784.557,246.357C797.607,246.357 808.201,273.707 808.201,307.394Z" style="fill:rgb(0,77,111);"/>
                <clipPath id="_clip2">
                    <path d="M808.201,307.394L808.201,692.92C808.201,726.607 797.607,753.957 784.557,753.957L154.364,753.957C141.315,753.957 130.72,726.607 130.72,692.92L130.72,307.394C130.72,273.707 141.315,246.357 154.364,246.357L784.557,246.357C797.607,246.357 808.201,273.707 808.201,307.394Z"/>
                </clipPath>
                <g clip-path="url(#_clip2)">
                    <g transform="matrix(3.8709,0,0,9.99274,-1577.1,-8433.04)">
                        <g transform="matrix(24,0,0,24,602.601,903.137)">
                        </g>
                        <text x="454.809px" y="903.137px" style="font-family:'AlfaSlabOne-Regular', 'Alfa Slab One';font-size:24px;fill:rgb(196,209,218);">T<tspan x="473.145px " y="903.137px ">a</tspan>ke a look</text>
                    </g>
                </g>
            </g>
        </g>
        <path d="M808.201,307.394L808.201,692.92C808.201,726.607 797.607,753.957 784.557,753.957L154.364,753.957C141.315,753.957 130.72,726.607 130.72,692.92L130.72,307.394C130.72,273.707 141.315,246.357 154.364,246.357L784.557,246.357C797.607,246.357 808.201,273.707 808.201,307.394Z" style="fill:none;stroke:rgb(196,209,218);stroke-opacity:0.8;stroke-width:10.21px;"/>
    </g>
</svg>
